<?xml version="1.0" encoding="UTF-8" standalone="no"?>
<svg xmlns:xlink="http://www.w3.org/1999/xlink" height="30.0px" width="30.0px" xmlns="http://www.w3.org/2000/svg">
  <g transform="matrix(1.0, 0.0, 0.0, 1.0, 0.0, -0.1)">
    <path d="M28.95 1.15 L30.0 0.1 30.0 30.1 28.95 29.05 28.95 1.15" fill="#149306" fill-rule="evenodd" stroke="none"/>
    <path d="M30.0 0.1 L28.95 1.15 1.05 1.15 0.0 0.1 30.0 0.1" fill="#1bbb09" fill-rule="evenodd" stroke="none"/>
    <path d="M0.0 0.1 L1.05 1.15 1.05 29.05 0.0 30.1 0.0 0.1" fill="#117a05" fill-rule="evenodd" stroke="none"/>
    <path d="M28.95 29.05 L30.0 30.1 0.0 30.1 1.05 29.05 28.95 29.05" fill="#0e6303" fill-rule="evenodd" stroke="none"/>
    <path d="M28.95 1.15 L28.95 29.05 1.05 29.05 1.05 1.15 28.95 1.15" fill="url(#gradient0)" fill-rule="evenodd" stroke="none"/>
  </g>
  <defs>
    <linearGradient gradientTransform="matrix(0.0184, -0.0258, 0.0138, 0.0099, 18.95, 15.35)" gradientUnits="userSpaceOnUse" id="gradient0" spreadMethod="reflect" x1="-819.2" x2="819.2">
      <stop offset="0.0" stop-color="#006633"/>
      <stop offset="0.47058823529411764" stop-color="#30d01e"/>
      <stop offset="1.0" stop-color="#006633"/>
    </linearGradient>
  </defs>
</svg>