<?xml version="1.0" encoding="UTF-8" standalone="no"?>
<svg xmlns:xlink="http://www.w3.org/1999/xlink" height="14.4px" width="14.4px" xmlns="http://www.w3.org/2000/svg">
  <g transform="matrix(1.0, 0.0, 0.0, 1.0, 7.2, 7.2)">
    <path d="M4.75 -4.75 Q6.7 -2.8 6.7 0.0 6.7 2.8 4.75 4.75 L4.15 5.3 Q2.35 6.7 0.0 6.7 -2.8 6.7 -4.75 4.75 -6.7 2.8 -6.7 0.0 -6.7 -2.4 -5.25 -4.15 L-4.75 -4.75 Q-2.8 -6.7 0.0 -6.7 2.8 -6.7 4.75 -4.75" fill="url(#gradient0)" fill-rule="evenodd" stroke="none"/>
    <path d="M4.75 -4.75 Q6.7 -2.8 6.7 0.0 6.7 2.8 4.75 4.75 L4.15 5.3 Q2.35 6.7 0.0 6.7 -2.8 6.7 -4.75 4.75 -6.7 2.8 -6.7 0.0 -6.7 -2.4 -5.25 -4.15 L-4.75 -4.75 Q-2.8 -6.7 0.0 -6.7 2.8 -6.7 4.75 -4.75 Z" fill="none" stroke="#ffffff" stroke-linecap="round" stroke-linejoin="round" stroke-width="1.0"/>
  </g>
  <defs>
    <radialGradient cx="0" cy="0" gradientTransform="matrix(0.0076, 0.0, 0.0, 0.0076, -1.5, -1.75)" gradientUnits="userSpaceOnUse" id="gradient0" r="819.2" spreadMethod="pad">
      <stop offset="0.0" stop-color="#ffffff"/>
      <stop offset="1.0" stop-color="#aaaaaa"/>
    </radialGradient>
  </defs>
</svg>